<?xml version="1.0" encoding="UTF-8"?>
<svg id="Layer_2" data-name="Layer 2" xmlns="http://www.w3.org/2000/svg" viewBox="0 0 868.11 154.78">
  <g id="Layer_1-2" data-name="Layer 1">
    <g>
      <path d="M406.31,142.47c-11.36,6.46-23.97,9.93-37.06,10.01l-68.97.39c-.7-2.24-.46-6.51,1.03-8.2,5.8-1.69,13.77-4.72,13.77-11.97l.12-107.49c0-8.12-6.2-13.25-14.04-13.86-1.29-1.99-1.56-5.25-1.21-8.24l69.44.13c9.57.02,18.45,2.1,27,5.72,18.96,8.01,26.27,30.96,15.06,48.24-4.34,6.69-11.29,9.59-18.79,13.92,18.11,3.09,31.56,16.03,32.98,33.67,1.27,15.78-5.05,29.58-19.34,37.7ZM383.31,54.69c3.93-7.26,3.92-15.36,2.14-22.66-4.49-18.39-25.65-17.56-40.91-16.15l.08,50.19c13.65-.15,31.52,1.9,38.69-11.37ZM395.61,109.44c-.22-8.46-1.92-15.55-7.28-21.51-11.05-10.29-28.99-7.95-43.72-8.05l-.06,52.1c0,3.34,1.78,5.65,4.92,6.86,7.52.12,14.73.2,21.93-.69,14.79-1.83,24.61-13.38,24.22-28.71Z"/>
      <path d="M868.11,152.84l-66.1.05-.48-7.46,7.1-1.71c1.93-.46,4.89-3.09,5.43-4.93s-.27-6.07-1.56-7.96l-26.55-38.93-24.32,35.17c-2.96,4.27-3.86,8.28-2.91,13.74,2.59,1.69,5.61,3.13,8.69,4.51,1.23,1.19,1.21,4.99.79,7.51l-47.83.07.94-8.8c8.62-3.57,15.05-8.49,20.38-15.94l35.16-49.15-38.74-58.46c-3.95-5.96-9.3-8.68-16.69-9.5-.54-2.72-.65-5.45,0-7.95l61.6.05c.56,2.27,1.03,4.86.87,6.31-.25,2.18-8.94,1.03-10.92,5.83-.72,1.74-.21,5.42.95,7.18l22.81,34.63,23.2-32.46c1.91-2.67,2.46-5.67,2.44-9.15-3.16-2.73-5.55-3.92-10.16-5.12-.24-1.44-.32-4.31-.27-7.26l46.64.07c.37,2.27.41,4.82.24,7.4-8.64,1.3-15.52,5.28-20.66,12.42l-33.16,46.16,38.64,57.4c6.04,8.97,13.23,15.81,24.19,18.24l.26,8.04Z"/>
      <path d="M656.76,80.2l-25.53-.23-.19,53.04c0,2.6,2.53,5.23,5.2,5.18l28.25-.53c15.65-.29,27.48-11.82,30.61-27.29l10.6.12-6.1,42.37-111.51.02c-.95-2.19-.88-5.98.12-8.19,6.38-1.19,13.87-4.52,13.87-12l.07-108.51c0-8.02-6-12.34-13.95-13.03-.68-2.15-.87-5.13-.62-8.03l109.07-.02,1.53,36.46c-3.85.37-7.6.39-10.77-.03-3.95-15.45-12.4-22.08-27.94-22.26l-28.33-.32.03,49.19,27.1-.33c7.9-.1,13.56-5.12,14.69-13.26,3.11-.49,6.01-.63,9.59-.49l-.07,44.53c-3.55.61-7.42.57-9.7-1.02-1.44-8.36-6.82-15.28-16.04-15.36Z"/>
      <path d="M228.21,3.11h48.67s.59,6.31.59,6.31c.29,3.1-14.99,1.17-15.02,14.8l-.17,70.7c-.06,24.95-9.99,47.93-35.37,55.6-28.93,8.74-72.27,3.58-82.82-30.21-2.34-7.51-3.62-15.36-3.62-23.37l-.06-70.89c0-8.57-5.47-13.95-14.31-14.87-1.06-1.8-1.23-5.48-.59-8.05l59.03-.05c1.05,2.01,1.03,6.04.05,7.98-8.53.66-14.02,5.65-14,14.02l.21,73.8c.05,19,6.06,35.56,26.87,38.79,16.77,2.6,36.24-1.03,42.56-18.86,2.21-6.24,3.65-13.01,3.65-19.95l-.02-72.8c0-8.73-5.9-14.23-14.66-14.83-1.41-1.7-1.76-5.42-.99-8.13Z"/>
      <path d="M79.99,148.7c-22.09,9.72-53.36,6.99-76.47-2.51L0,104.96l11.06-.52c3.33,11.8,8.8,22.12,19.06,28.88,9.61,6.33,22.29,7.92,33.14,4.67,8.08-2.42,13.71-9.06,15.04-15.85,1.74-8.91-2.08-16.65-9.28-21.89-16.71-12.17-36.27-13.99-53.77-29-18.12-15.54-18.6-43.3-.05-58.42C36.75-4.77,72.34-2.31,97.15,8.51l.46,33-10.43-.16c-6.32-21.89-29.23-32.61-49.41-22.8-6.08,2.95-9.68,9.04-9.98,15.11-1.53,30.63,72.69,20.06,77.47,72.26,1.72,18.78-7.98,35.17-25.27,42.78Z"/>
      <path d="M535.23,152.82h-59.17c-1.21-1.69-1.26-6.4.28-7.96,5.28-1.57,13.88-4.04,13.89-11.18l.2-116.67-20.11-.22c-12.65-.14-17.25,11.02-19.06,22.52l-10.15.34,1.87-36.55,124.06-.02,1.56,36.4-9.79.31c-3.07-11.26-5.76-23.02-20.37-22.91l-19.04.15.2,112.54c.02,8.72,6.97,14.15,14.85,15.13,1.43,1.9,1.54,5.61.77,8.13Z"/>
    </g>
  </g>
</svg>