<?xml version="1.0" encoding="UTF-8"?>
<svg id="Layer_2" data-name="Layer 2" xmlns="http://www.w3.org/2000/svg" viewBox="0 0 868.11 714.74">
  <g id="Layer_1-2" data-name="Layer 1">
    <g>
      <path d="M406.31,702.42c-11.36,6.46-23.97,9.93-37.06,10.01l-68.97.39c-.7-2.24-.46-6.51,1.03-8.2,5.8-1.69,13.77-4.72,13.77-11.97l.12-107.49c0-8.12-6.2-13.25-14.04-13.86-1.29-1.99-1.56-5.25-1.21-8.24l69.44.13c9.57.02,18.45,2.1,27,5.72,18.96,8.01,26.27,30.96,15.06,48.24-4.34,6.69-11.29,9.59-18.79,13.92,18.11,3.09,31.56,16.03,32.98,33.67,1.27,15.78-5.05,29.58-19.34,37.7ZM383.31,614.64c3.93-7.26,3.92-15.36,2.14-22.66-4.49-18.39-25.65-17.56-40.91-16.15l.08,50.19c13.65-.15,31.52,1.9,38.69-11.37ZM395.61,669.4c-.22-8.46-1.92-15.55-7.28-21.51-11.05-10.29-28.99-7.95-43.72-8.05l-.06,52.1c0,3.34,1.78,5.65,4.92,6.86,7.52.12,14.73.2,21.93-.69,14.79-1.83,24.61-13.38,24.22-28.71Z"/>
      <path d="M868.11,712.79l-66.1.05-.48-7.46,7.1-1.71c1.93-.46,4.89-3.09,5.43-4.93s-.27-6.07-1.56-7.96l-26.55-38.93-24.32,35.17c-2.96,4.27-3.86,8.28-2.91,13.74,2.59,1.69,5.61,3.13,8.69,4.51,1.23,1.19,1.21,4.99.79,7.51l-47.83.07.94-8.8c8.62-3.57,15.05-8.49,20.38-15.94l35.16-49.15-38.74-58.46c-3.95-5.96-9.3-8.68-16.69-9.5-.54-2.72-.65-5.45,0-7.95l61.6.05c.56,2.27,1.03,4.86.87,6.31-.25,2.18-8.94,1.03-10.92,5.83-.72,1.74-.21,5.42.95,7.18l22.81,34.63,23.2-32.46c1.91-2.67,2.46-5.67,2.44-9.15-3.16-2.73-5.55-3.92-10.16-5.12-.24-1.44-.32-4.31-.27-7.26l46.64.07c.37,2.27.41,4.82.24,7.4-8.64,1.3-15.52,5.28-20.66,12.42l-33.16,46.16,38.64,57.4c6.04,8.97,13.23,15.81,24.19,18.24l.26,8.04Z"/>
      <path d="M656.76,640.15l-25.53-.23-.19,53.04c0,2.6,2.53,5.23,5.2,5.18l28.25-.53c15.65-.29,27.48-11.82,30.61-27.29l10.6.12-6.1,42.37-111.51.02c-.95-2.19-.88-5.98.12-8.19,6.38-1.19,13.87-4.52,13.87-12l.07-108.51c0-8.02-6-12.34-13.95-13.03-.68-2.15-.87-5.13-.62-8.03l109.07-.02,1.53,36.46c-3.85.37-7.6.39-10.77-.03-3.95-15.45-12.4-22.08-27.94-22.26l-28.33-.32.03,49.19,27.1-.33c7.9-.1,13.56-5.12,14.69-13.26,3.11-.49,6.01-.63,9.59-.49l-.07,44.53c-3.55.61-7.42.57-9.7-1.02-1.44-8.36-6.82-15.28-16.04-15.36Z"/>
      <path d="M228.21,563.07h48.67s.59,6.31.59,6.31c.29,3.1-14.99,1.17-15.02,14.8l-.17,70.7c-.06,24.95-9.99,47.93-35.37,55.6-28.93,8.74-72.27,3.58-82.82-30.21-2.34-7.51-3.62-15.36-3.62-23.37l-.06-70.89c0-8.57-5.47-13.95-14.31-14.87-1.06-1.8-1.23-5.48-.59-8.05l59.03-.05c1.05,2.01,1.03,6.04.05,7.98-8.53.66-14.02,5.65-14,14.02l.21,73.8c.05,19,6.06,35.56,26.87,38.79,16.77,2.6,36.24-1.03,42.56-18.86,2.21-6.24,3.65-13.01,3.65-19.95l-.02-72.8c0-8.73-5.9-14.23-14.66-14.83-1.41-1.7-1.76-5.42-.99-8.13Z"/>
      <path d="M79.99,708.65c-22.09,9.72-53.36,6.99-76.47-2.51l-3.52-41.23,11.06-.52c3.33,11.8,8.8,22.12,19.06,28.88,9.61,6.33,22.29,7.92,33.14,4.67,8.08-2.42,13.71-9.06,15.04-15.85,1.74-8.91-2.08-16.65-9.28-21.89-16.71-12.17-36.27-13.99-53.77-29-18.12-15.54-18.6-43.3-.05-58.42,21.57-17.59,57.16-15.14,81.97-4.32l.46,33-10.43-.16c-6.32-21.89-29.23-32.61-49.41-22.8-6.08,2.95-9.68,9.04-9.98,15.11-1.53,30.63,72.69,20.06,77.47,72.26,1.72,18.78-7.98,35.17-25.27,42.78Z"/>
      <path d="M535.23,712.78h-59.17c-1.21-1.69-1.26-6.4.28-7.96,5.28-1.57,13.88-4.04,13.89-11.18l.2-116.67-20.11-.22c-12.65-.14-17.25,11.02-19.06,22.52l-10.15.34,1.87-36.55,124.06-.02,1.56,36.4-9.79.31c-3.07-11.26-5.76-23.02-20.37-22.91l-19.04.15.2,112.54c.02,8.72,6.97,14.15,14.85,15.13,1.43,1.9,1.54,5.61.77,8.13Z"/>
    </g>
  </g>
  <g id="Layer_2-2" data-name="Layer 2">
    <path d="M357.29,369.81c-26.18,2.56-50.92,6.03-76.9,12.94l-.04,57.76c18.75-6.68,36.44-10.27,55.97-12.77,65.85-7.85,131.71-8.01,198.29-.48,19.84,2.88,37.24,6.37,55.82,13.34l.05-57.82c-21.49-6.04-41.52-9.16-63.07-11.96-56.83-5.53-113.25-6.23-170.12-1.01ZM336.34,410.13c-6.73,0-12.18-5.45-12.18-12.18s5.45-12.18,12.18-12.18,12.18,5.45,12.18,12.18-5.45,12.18-12.18,12.18ZM435.69,405.13c-6.73,0-12.18-5.45-12.18-12.18s5.45-12.18,12.18-12.18,12.18,5.45,12.18,12.18-5.45,12.18-12.18,12.18ZM545.71,397.82c0,6.73-5.45,12.18-12.18,12.18s-12.18-5.45-12.18-12.18,5.45-12.18,12.18-12.18,12.18,5.45,12.18,12.18ZM545.37,136.65c-33.03.44-53.71,14.17-72.31,13.19-14.31-.75-19.28-10.11-23.85-22.26,5.83,1.01,10.71,2.02,15.61-.86,2.77-1.63,4.59-5.73,4.41-8.7-.53-8.65-9.22-11.95-17.76-13.12-.48-6.08.5-12.99,3.75-18.41,3.58-5.98,10.36-8.42,16.76-7.15,6.26,1.23,10.4,6.78,12.25,14.03,8.1-4.84,12.92-14.58,11.45-24.11-1.89-12.26-13.17-20.2-25.24-19.72-9.27.36-15.84,4.43-23.33,9.61l4.12-9.79C459.8,28.98,450.8,13.68,435.67,0l-6.08,5.63c-15.28,14.13-17.85,35.4-5.21,53.23-11.96-6.11-18.98-12.18-33.3-7.87-9.15,2.76-15.62,10.51-16.59,19.14-1.06,9.42,3.37,18.77,11.76,23.13,1.81-3.94,3.22-8.73,6.59-11.37,5.9-4.64,15.89-3.33,20.61,2.45,4.54,5.56,6.21,13.89,5.58,20.61-5.65.98-11.97,1.6-15.9,6.18-2.19,2.54-3.28,7.28-2.46,10.24,2.21,7.95,13.34,7.92,20.08,6.89-5.61,18.13-18.5,25.3-35.93,20.78l-36.47-9.45c-28.04-7.27-57.38-2.48-81.63,12.91-25,15.87-38.55,42.26-37.45,71.94.5,13.43,3.61,25.98,8.09,38.77,8.21,23.48,17.55,45.68,27.79,68.35l15.57,34.45c25.23-5.69,48.96-9.22,75.22-11.77,78.41-6.61,157.62-4.48,234.15,11.89l40.57-96.61c6.32-15.06,9.85-29.97,10.8-46.1,1.28-53.54-45.81-87.41-96.08-86.74ZM575.05,289.49c7.13,1.42,12.99,5.33,13.57,12.74.73,9.4-3.17,18.89-10.37,24.63-5.51,4.39-11.5,5.99-18.33,4.64-10.82-2.13-16.43-11.41-18.39-22.17,14.29-1.83,23.33-13.26,22.89-26.61-.45-13.41-10.8-24.04-24.58-24.94-12.35-.81-23.24,6.43-26.87,17.63-3.74,11.56.33,24.29,11.29,30.48-12.28,22.72-43.96,26.38-64.59,15.08-10.37-5.68-17.7-14.65-24.29-24.99-5.75,8.39-11.49,15.78-19.57,21.63-21.65,15.67-54.83,12.31-68.61-11.78,9.55-6.51,13.56-17.21,11.28-27.77-2.19-10.16-10.96-18.45-21.85-20.05-14.92-2.19-27.6,7.19-29.99,21.15-2.47,14.41,6.55,27.66,21.7,30.16-1.08,8.47-5.43,15.85-12.68,20.1-7.04,4.13-15.57,3.67-22.19-1.2-7.03-5.18-11.28-13.22-11.88-21.91-.62-9.02,5.2-15.31,14.16-16.8-32.12-24.03-42.8-66.91-19.58-99.35,17.03-23.79,45.44-28.38,72.68-22.19,22.04,5,42.85,11.29,64.42,1.86-1.13,18.3-2.44,35.1-4.67,52.52-.62,4.81-3.36,8.2-6.78,11.35-14.05,12.93-21,32.31-15.58,50.53,2.89,9.72,10.78,16.33,19.67,17.23,10.14,1.02,19.27-4.47,23.55-13.93-17.9-18.13-8.17-37.3,5.99-54.43,13.24,16.52,24.22,35.47,6.09,52.95,2.19,7.28,8.33,12.64,14.59,14.44,8.31,2.39,16.01-.04,21.81-5.78,14.36-14.22,8.71-42.56-5.6-57.26l-9.54-9.8-5.85-57.83c35.92,12.6,51.72-5.64,88.48-4.28,19.1.71,36.15,9.01,47.66,24.21,24.42,32.23,14.06,75.28-18.06,99.75ZM503.95,441.53c-58.6-4.73-140.25-3.81-197.68,8.24-4.27.9-22.54,5.63-21.46,10.67,1.26,5.87,25.52,10.61,31.88,11.65,39.12,6.37,77.81,8.7,117.7,9,37.14.28,72.98-2.11,110.13-7.41,6.61-.94,42.7-6.61,40.79-14.21-7.51-11.63-67.02-16.79-81.35-17.94Z"/>
  </g>
</svg>